# xmcd
#
# Track frame offsets: 
#        150
#        23282
#        49974
#        69275
#        84896
#        108507
#        130061
#        157656
#        185157
#        207518
#        235775
#        254235
#        273789
#
# Disc length: 3871 seconds
#
# Revision: 0
# Processed by: cddbd v1.5.2PL0 Copyright (c) Steve Scherf et al.
# Submitted via: ExactAudioCopy v1.0b3
#
DISCID=a80f1d0d
DTITLE=Arek Zawiliński i przyjaciele - Na drodze donikąd - Live in Yav
DTITLE=orkee
DYEAR=2004
DGENRE=acoustic blues
TTITLE0=Na drodze donikąd
TTITLE1=Powiedz brachu sam
TTITLE2=Na ciebie nikt nie czeka tam
TTITLE3=Blues bar
TTITLE4=Człowiek dnia długiego
TTITLE5=Za ptaki bez gniazd
TTITLE6=Jak w bajce
TTITLE7=Chcę na drogę
TTITLE8=Zawód – muzyk bluesowy
TTITLE9=A rano w niedziele
TTITLE10=Plan Jakuba drwala
TTITLE11=Stara pieśń
TTITLE12=Kołysanka na dzień dobry
EXTD=
EXTT0=
EXTT1=
EXTT2=
EXTT3=
EXTT4=
EXTT5=
EXTT6=
EXTT7=
EXTT8=
EXTT9=
EXTT10=
EXTT11=
EXTT12=
PLAYORDER=
